<?xml version="1.0" standalone="no"?>
<svg viewBox="0 0 200 200" xmlns="http://www.w3.org/2000/svg">
  <path  d="M34.7,-58.2C47.7,-52.5,63.1,-48.9,71,-39.6C78.9,-30.2,79.2,-15.1,76.3,-1.7C73.4,11.8,67.3,23.5,60.3,34.4C53.3,45.3,45.5,55.3,35.3,62.7C25.2,70.1,12.6,74.8,-1,76.5C-14.6,78.3,-29.2,77.1,-43.5,72.1C-57.8,67.1,-71.7,58.3,-80.6,45.6C-89.4,33,-93,16.5,-89,2.3C-85,-11.9,-73.4,-23.8,-63.6,-34.7C-53.8,-45.7,-45.9,-55.8,-35.6,-63.1C-25.4,-70.4,-12.7,-74.9,-0.9,-73.3C10.8,-71.7,21.6,-63.9,34.7,-58.2Z" transform="translate(100 100)" />
</svg>
